# xmcd
# 
# Track frame offsets:
#     183
#     36350
#     50840
#     72273
#     80035
#     101003
#     126055
#     143668
#     156890
#     168130
# 
# Disc length: 2593
# 
# Revision: 16
# Processed by: cddbd v1.5.2PL0 Copyright (c) Steve Scherf et al.
# Submitted via: fre:ac v1.0.17
# 
DISCID=880a1f0a
DTITLE=Black Sabbath - Vol 4
DYEAR=1972
DGENRE=Rock
TTITLE0=Wheels of Confusion - The Straightener
TTITLE1=Tomorrow's Dream
TTITLE2=Changes
TTITLE3=FX
TTITLE4=Supernaut
TTITLE5=Snowblind
TTITLE6=Cornucopia
TTITLE7=Laguna Sunrise
TTITLE8=St. Vitus' Dance
TTITLE9=Under The Sun - Every Day Comes And Goes
EXTD=YEAR: 1972
EXTT0=
EXTT1=
EXTT2=
EXTT3=
EXTT4=
EXTT5=
EXTT6=
EXTT7=
EXTT8=
EXTT9=
PLAYORDER=
